<mxfile host="app.diagrams.net" modified="2022-06-23T14:11:48.320Z" agent="5.0 (Macintosh; Intel Mac OS X 10_15_7) AppleWebKit/537.36 (KHTML, like Gecko) Chrome/102.0.0.0 Safari/537.36" etag="PysY9Zr-QjT4nvRu-opE" version="18.0.4" type="github">
  <diagram id="PT2pwHq3WN89KfEwfP4g" name="第 1 页">
    <mxGraphModel dx="850" dy="500" grid="1" gridSize="10" guides="1" tooltips="1" connect="1" arrows="1" fold="1" page="1" pageScale="1" pageWidth="827" pageHeight="1169" math="0" shadow="0">
      <root>
        <mxCell id="0" />
        <mxCell id="1" parent="0" />
        <mxCell id="q3NtQg7YhmeLhcSywwMV-1" value="&lt;div style=&quot;&quot;&gt;&lt;span style=&quot;background-color: initial;&quot;&gt;Web前端模块&lt;/span&gt;&lt;/div&gt;" style="rounded=0;whiteSpace=wrap;html=1;align=center;" vertex="1" parent="1">
          <mxGeometry x="120" y="70" width="40" height="350" as="geometry" />
        </mxCell>
        <mxCell id="q3NtQg7YhmeLhcSywwMV-5" value="" style="edgeStyle=orthogonalEdgeStyle;rounded=0;orthogonalLoop=1;jettySize=auto;html=1;shape=flexArrow;endArrow=block;endFill=0;startArrow=block;width=10;endSize=3;startSize=3;" edge="1" parent="1" source="q3NtQg7YhmeLhcSywwMV-2" target="q3NtQg7YhmeLhcSywwMV-3">
          <mxGeometry relative="1" as="geometry" />
        </mxCell>
        <mxCell id="q3NtQg7YhmeLhcSywwMV-2" value="数据分析与排序模块" style="rounded=0;whiteSpace=wrap;html=1;" vertex="1" parent="1">
          <mxGeometry x="240" y="140" width="60" height="150" as="geometry" />
        </mxCell>
        <mxCell id="q3NtQg7YhmeLhcSywwMV-3" value="&lt;br&gt;用户日志数据库" style="strokeWidth=2;html=1;shape=mxgraph.flowchart.database;whiteSpace=wrap;verticalAlign=middle;labelPosition=center;verticalLabelPosition=middle;align=center;horizontal=1;" vertex="1" parent="1">
          <mxGeometry x="240" y="340" width="60" height="80" as="geometry" />
        </mxCell>
        <mxCell id="q3NtQg7YhmeLhcSywwMV-6" value="数据检索子系统" style="text;html=1;align=center;verticalAlign=middle;resizable=0;points=[];autosize=1;strokeColor=none;fillColor=none;" vertex="1" parent="1">
          <mxGeometry x="220" y="90" width="100" height="20" as="geometry" />
        </mxCell>
        <mxCell id="q3NtQg7YhmeLhcSywwMV-8" value="" style="html=1;shadow=0;dashed=0;align=center;verticalAlign=middle;shape=mxgraph.arrows2.twoWayArrow;dy=0.65;dx=22;" vertex="1" parent="1">
          <mxGeometry x="160" y="200" width="80" height="20" as="geometry" />
        </mxCell>
        <mxCell id="q3NtQg7YhmeLhcSywwMV-9" value="结果" style="text;html=1;align=center;verticalAlign=middle;resizable=0;points=[];autosize=1;strokeColor=none;fillColor=none;" vertex="1" parent="1">
          <mxGeometry x="180" y="180" width="40" height="20" as="geometry" />
        </mxCell>
        <mxCell id="q3NtQg7YhmeLhcSywwMV-10" value="Query" style="text;html=1;align=center;verticalAlign=middle;resizable=0;points=[];autosize=1;strokeColor=none;fillColor=none;" vertex="1" parent="1">
          <mxGeometry x="175" y="220" width="50" height="20" as="geometry" />
        </mxCell>
        <mxCell id="q3NtQg7YhmeLhcSywwMV-12" value="Read" style="text;html=1;align=center;verticalAlign=middle;resizable=0;points=[];autosize=1;strokeColor=none;fillColor=none;" vertex="1" parent="1">
          <mxGeometry x="290" y="300" width="40" height="20" as="geometry" />
        </mxCell>
        <mxCell id="q3NtQg7YhmeLhcSywwMV-13" value="Write" style="text;html=1;align=center;verticalAlign=middle;resizable=0;points=[];autosize=1;strokeColor=none;fillColor=none;" vertex="1" parent="1">
          <mxGeometry x="290" y="320" width="40" height="20" as="geometry" />
        </mxCell>
        <mxCell id="q3NtQg7YhmeLhcSywwMV-14" value="" style="edgeStyle=orthogonalEdgeStyle;rounded=0;orthogonalLoop=1;jettySize=auto;html=1;shape=flexArrow;endArrow=block;endFill=0;startArrow=block;width=10;endSize=3;startSize=3;" edge="1" source="q3NtQg7YhmeLhcSywwMV-15" target="q3NtQg7YhmeLhcSywwMV-16" parent="1">
          <mxGeometry relative="1" as="geometry" />
        </mxCell>
        <mxCell id="q3NtQg7YhmeLhcSywwMV-15" value="索引建立与同步模块" style="rounded=0;whiteSpace=wrap;html=1;" vertex="1" parent="1">
          <mxGeometry x="380" y="140" width="60" height="150" as="geometry" />
        </mxCell>
        <mxCell id="q3NtQg7YhmeLhcSywwMV-16" value="&lt;div style=&quot;&quot;&gt;&lt;span style=&quot;background-color: initial;&quot;&gt;代码信息索引数据库&lt;/span&gt;&lt;/div&gt;" style="strokeWidth=2;html=1;shape=mxgraph.flowchart.database;whiteSpace=wrap;align=center;verticalAlign=bottom;" vertex="1" parent="1">
          <mxGeometry x="380" y="340" width="60" height="80" as="geometry" />
        </mxCell>
        <mxCell id="q3NtQg7YhmeLhcSywwMV-17" value="&lt;span style=&quot;&quot;&gt;索引建立与同步&lt;br&gt;&lt;/span&gt;子系统" style="text;html=1;align=center;verticalAlign=middle;resizable=0;points=[];autosize=1;strokeColor=none;fillColor=none;" vertex="1" parent="1">
          <mxGeometry x="360" y="85" width="100" height="30" as="geometry" />
        </mxCell>
        <mxCell id="q3NtQg7YhmeLhcSywwMV-18" value="" style="html=1;shadow=0;dashed=0;align=center;verticalAlign=middle;shape=mxgraph.arrows2.twoWayArrow;dy=0.65;dx=22;" vertex="1" parent="1">
          <mxGeometry x="300" y="200" width="80" height="20" as="geometry" />
        </mxCell>
        <mxCell id="q3NtQg7YhmeLhcSywwMV-19" value="反馈" style="text;html=1;align=center;verticalAlign=middle;resizable=0;points=[];autosize=1;strokeColor=none;fillColor=none;" vertex="1" parent="1">
          <mxGeometry x="320" y="180" width="40" height="20" as="geometry" />
        </mxCell>
        <mxCell id="q3NtQg7YhmeLhcSywwMV-21" value="Read" style="text;html=1;align=center;verticalAlign=middle;resizable=0;points=[];autosize=1;strokeColor=none;fillColor=none;" vertex="1" parent="1">
          <mxGeometry x="430" y="300" width="40" height="20" as="geometry" />
        </mxCell>
        <mxCell id="q3NtQg7YhmeLhcSywwMV-22" value="Write" style="text;html=1;align=center;verticalAlign=middle;resizable=0;points=[];autosize=1;strokeColor=none;fillColor=none;" vertex="1" parent="1">
          <mxGeometry x="430" y="320" width="40" height="20" as="geometry" />
        </mxCell>
        <mxCell id="q3NtQg7YhmeLhcSywwMV-30" value="" style="line;strokeWidth=2;html=1;dashed=1;fillColor=#1A1A1A;gradientColor=none;direction=south;opacity=50;" vertex="1" parent="1">
          <mxGeometry x="335" y="100" width="10" height="320" as="geometry" />
        </mxCell>
        <mxCell id="q3NtQg7YhmeLhcSywwMV-31" value="Read" style="text;html=1;align=center;verticalAlign=middle;resizable=0;points=[];autosize=1;strokeColor=none;fillColor=none;" vertex="1" parent="1">
          <mxGeometry x="430" y="300" width="40" height="20" as="geometry" />
        </mxCell>
        <mxCell id="q3NtQg7YhmeLhcSywwMV-32" value="Write" style="text;html=1;align=center;verticalAlign=middle;resizable=0;points=[];autosize=1;strokeColor=none;fillColor=none;" vertex="1" parent="1">
          <mxGeometry x="430" y="320" width="40" height="20" as="geometry" />
        </mxCell>
        <mxCell id="q3NtQg7YhmeLhcSywwMV-33" value="" style="edgeStyle=orthogonalEdgeStyle;rounded=0;orthogonalLoop=1;jettySize=auto;html=1;shape=flexArrow;endArrow=block;endFill=0;startArrow=block;width=10;endSize=3;startSize=3;" edge="1" source="q3NtQg7YhmeLhcSywwMV-34" target="q3NtQg7YhmeLhcSywwMV-35" parent="1">
          <mxGeometry relative="1" as="geometry" />
        </mxCell>
        <mxCell id="q3NtQg7YhmeLhcSywwMV-34" value="信息抽取与数据清洗模块" style="rounded=0;whiteSpace=wrap;html=1;" vertex="1" parent="1">
          <mxGeometry x="520" y="140" width="60" height="150" as="geometry" />
        </mxCell>
        <mxCell id="q3NtQg7YhmeLhcSywwMV-35" value="HBase分布式数据库" style="strokeWidth=2;html=1;shape=mxgraph.flowchart.database;whiteSpace=wrap;verticalAlign=bottom;" vertex="1" parent="1">
          <mxGeometry x="520" y="340" width="60" height="80" as="geometry" />
        </mxCell>
        <mxCell id="q3NtQg7YhmeLhcSywwMV-36" value="&lt;span style=&quot;&quot;&gt;索引建立与同步&lt;br&gt;&lt;/span&gt;子系统" style="text;html=1;align=center;verticalAlign=middle;resizable=0;points=[];autosize=1;strokeColor=none;fillColor=none;" vertex="1" parent="1">
          <mxGeometry x="500" y="85" width="100" height="30" as="geometry" />
        </mxCell>
        <mxCell id="q3NtQg7YhmeLhcSywwMV-38" value="增量同步" style="text;html=1;align=center;verticalAlign=middle;resizable=0;points=[];autosize=1;strokeColor=none;fillColor=none;" vertex="1" parent="1">
          <mxGeometry x="450" y="180" width="60" height="20" as="geometry" />
        </mxCell>
        <mxCell id="q3NtQg7YhmeLhcSywwMV-39" value="Read" style="text;html=1;align=center;verticalAlign=middle;resizable=0;points=[];autosize=1;strokeColor=none;fillColor=none;" vertex="1" parent="1">
          <mxGeometry x="570" y="300" width="40" height="20" as="geometry" />
        </mxCell>
        <mxCell id="q3NtQg7YhmeLhcSywwMV-40" value="Write" style="text;html=1;align=center;verticalAlign=middle;resizable=0;points=[];autosize=1;strokeColor=none;fillColor=none;" vertex="1" parent="1">
          <mxGeometry x="570" y="320" width="40" height="20" as="geometry" />
        </mxCell>
        <mxCell id="q3NtQg7YhmeLhcSywwMV-41" value="" style="line;strokeWidth=2;html=1;dashed=1;fillColor=#1A1A1A;gradientColor=none;direction=south;opacity=50;" vertex="1" parent="1">
          <mxGeometry x="475" y="100" width="10" height="320" as="geometry" />
        </mxCell>
        <mxCell id="q3NtQg7YhmeLhcSywwMV-47" value="" style="shape=singleArrow;direction=west;whiteSpace=wrap;html=1;" vertex="1" parent="1">
          <mxGeometry x="440" y="200" width="80" height="20" as="geometry" />
        </mxCell>
        <mxCell id="q3NtQg7YhmeLhcSywwMV-49" value="" style="edgeStyle=orthogonalEdgeStyle;rounded=0;orthogonalLoop=1;jettySize=auto;html=1;shape=flexArrow;endArrow=block;endFill=0;startArrow=block;width=10;endSize=3;startSize=3;" edge="1" source="q3NtQg7YhmeLhcSywwMV-50" target="q3NtQg7YhmeLhcSywwMV-51" parent="1">
          <mxGeometry relative="1" as="geometry" />
        </mxCell>
        <mxCell id="q3NtQg7YhmeLhcSywwMV-50" value="数据采集模块" style="rounded=0;whiteSpace=wrap;html=1;" vertex="1" parent="1">
          <mxGeometry x="650" y="140" width="60" height="150" as="geometry" />
        </mxCell>
        <mxCell id="q3NtQg7YhmeLhcSywwMV-51" value="HBase分布式数据库" style="strokeWidth=2;html=1;shape=mxgraph.flowchart.database;whiteSpace=wrap;verticalAlign=bottom;" vertex="1" parent="1">
          <mxGeometry x="650" y="340" width="60" height="80" as="geometry" />
        </mxCell>
        <mxCell id="q3NtQg7YhmeLhcSywwMV-52" value="&lt;span style=&quot;&quot;&gt;索引建立与同步&lt;br&gt;&lt;/span&gt;子系统" style="text;html=1;align=center;verticalAlign=middle;resizable=0;points=[];autosize=1;strokeColor=none;fillColor=none;" vertex="1" parent="1">
          <mxGeometry x="630" y="85" width="100" height="30" as="geometry" />
        </mxCell>
        <mxCell id="q3NtQg7YhmeLhcSywwMV-53" value="Read" style="text;html=1;align=center;verticalAlign=middle;resizable=0;points=[];autosize=1;strokeColor=none;fillColor=none;" vertex="1" parent="1">
          <mxGeometry x="700" y="300" width="40" height="20" as="geometry" />
        </mxCell>
        <mxCell id="q3NtQg7YhmeLhcSywwMV-54" value="Write" style="text;html=1;align=center;verticalAlign=middle;resizable=0;points=[];autosize=1;strokeColor=none;fillColor=none;" vertex="1" parent="1">
          <mxGeometry x="700" y="320" width="40" height="20" as="geometry" />
        </mxCell>
        <mxCell id="q3NtQg7YhmeLhcSywwMV-55" value="&lt;div style=&quot;&quot;&gt;&lt;span style=&quot;background-color: initial;&quot;&gt;数据源&lt;/span&gt;&lt;/div&gt;" style="rounded=0;whiteSpace=wrap;html=1;align=center;" vertex="1" parent="1">
          <mxGeometry x="780" y="70" width="40" height="350" as="geometry" />
        </mxCell>
        <mxCell id="q3NtQg7YhmeLhcSywwMV-57" value="" style="shape=singleArrow;direction=west;whiteSpace=wrap;html=1;" vertex="1" parent="1">
          <mxGeometry x="710" y="200" width="70" height="20" as="geometry" />
        </mxCell>
        <mxCell id="q3NtQg7YhmeLhcSywwMV-58" value="" style="shape=singleArrow;whiteSpace=wrap;html=1;strokeColor=#000000;fillColor=none;gradientColor=none;" vertex="1" parent="1">
          <mxGeometry x="580" y="200" width="70" height="20" as="geometry" />
        </mxCell>
        <mxCell id="q3NtQg7YhmeLhcSywwMV-59" value="反馈" style="text;html=1;align=center;verticalAlign=middle;resizable=0;points=[];autosize=1;strokeColor=none;fillColor=none;" vertex="1" parent="1">
          <mxGeometry x="590" y="180" width="40" height="20" as="geometry" />
        </mxCell>
        <mxCell id="q3NtQg7YhmeLhcSywwMV-60" value="抓取" style="text;html=1;align=center;verticalAlign=middle;resizable=0;points=[];autosize=1;strokeColor=none;fillColor=none;" vertex="1" parent="1">
          <mxGeometry x="725" y="180" width="40" height="20" as="geometry" />
        </mxCell>
        <mxCell id="q3NtQg7YhmeLhcSywwMV-61" value="" style="shape=doubleArrow;whiteSpace=wrap;html=1;strokeColor=#000000;fillColor=none;gradientColor=none;" vertex="1" parent="1">
          <mxGeometry x="580" y="380" width="70" height="20" as="geometry" />
        </mxCell>
        <mxCell id="q3NtQg7YhmeLhcSywwMV-62" value="存储模块" style="text;html=1;align=center;verticalAlign=middle;resizable=0;points=[];autosize=1;strokeColor=none;fillColor=none;" vertex="1" parent="1">
          <mxGeometry x="580" y="360" width="60" height="20" as="geometry" />
        </mxCell>
        <mxCell id="q3NtQg7YhmeLhcSywwMV-63" value="" style="shape=doubleArrow;whiteSpace=wrap;html=1;strokeColor=#000000;fillColor=none;gradientColor=none;" vertex="1" parent="1">
          <mxGeometry x="440" y="380" width="80" height="20" as="geometry" />
        </mxCell>
        <mxCell id="q3NtQg7YhmeLhcSywwMV-65" value="Read" style="text;html=1;align=center;verticalAlign=middle;resizable=0;points=[];autosize=1;strokeColor=none;fillColor=none;" vertex="1" parent="1">
          <mxGeometry x="460" y="360" width="40" height="20" as="geometry" />
        </mxCell>
        <mxCell id="q3NtQg7YhmeLhcSywwMV-66" value="全量同步" style="text;html=1;align=center;verticalAlign=middle;resizable=0;points=[];autosize=1;strokeColor=none;fillColor=none;" vertex="1" parent="1">
          <mxGeometry x="450" y="400" width="60" height="20" as="geometry" />
        </mxCell>
        <mxCell id="q3NtQg7YhmeLhcSywwMV-67" value="" style="endArrow=classic;html=1;rounded=0;" edge="1" parent="1">
          <mxGeometry width="50" height="50" relative="1" as="geometry">
            <mxPoint x="770" y="70" as="sourcePoint" />
            <mxPoint x="170" y="70" as="targetPoint" />
          </mxGeometry>
        </mxCell>
        <mxCell id="q3NtQg7YhmeLhcSywwMV-68" value="代码信息搜索引擎" style="text;html=1;align=center;verticalAlign=middle;resizable=0;points=[];autosize=1;strokeColor=none;fillColor=none;" vertex="1" parent="1">
          <mxGeometry x="420" y="40" width="110" height="20" as="geometry" />
        </mxCell>
      </root>
    </mxGraphModel>
  </diagram>
</mxfile>
